<svg xmlns="http://www.w3.org/2000/svg" viewBox="0 0 500 500"><g id="freepik--plant-3--inject-66"><path d="M385,98.11c-4.81-2-14.29-5-15.34-3.15a40.65,40.65,0,0,1-4.81,5.41s-2.1-6-3.91-6.32-9.47-.45-11.12,0,4.36,4.66,9.47,7.82a25.77,25.77,0,0,0,3.42,1.78,28.51,28.51,0,0,0-.51,8.24c.48,4.18.55,15.43-1.48,22.52-2.22,7.77-5.57,33.71-4.08,42.62l1.69-.28c-1.45-8.73,1.85-34.22,4-41.87,2.09-7.32,2-18.9,1.53-23.19a27.25,27.25,0,0,1,.44-7.41c2.51.88,4.47,1.21,6.07,2.25a12.32,12.32,0,0,1,3.46,3s.3-1.81,1-1.66,11.13,2.56,12.93,2.26S389.85,100.07,385,98.11Z" style="fill:#263238"></path><path d="M351.87,174.05c0-.2-3.92-19.63-5.11-26.17-.61-3.35-1.44-12.39-2.25-21.13-.78-8.51-1.59-17.31-2.11-19.74a16.32,16.32,0,0,0-3.82-7.54l1.21-1.21a17.9,17.9,0,0,1,4.29,8.39c.54,2.54,1.32,11,2.14,19.94.81,8.71,1.63,17.71,2.23,21,1.19,6.53,5.07,26,5.11,26.14Z" style="fill:#263238;stroke:#263238;stroke-linecap:round;stroke-linejoin:round"></path><path d="M357,173.31l-1.72-.06c0-.05.16-5,.46-9.35s.16-46.53,0-68.19c-.15-19.47-.16-45.15-.16-45.4h1.72c0,.25,0,25.93.15,45.39.14,18.39.31,63.81,0,68.32C357.18,168.31,357,173.26,357,173.31Z" style="fill:#263238;stroke:#263238;stroke-linecap:round;stroke-linejoin:round"></path><path d="M358.07,173l-1.69-.3c1.36-7.67,8.41-34.7,17.86-49.33S391.79,98,391.87,97.89l1.37,1c-.08.11-8.06,10.67-17.55,25.36C366.37,138.69,359.42,165.4,358.07,173Z" style="fill:#263238;stroke:#263238;stroke-linecap:round;stroke-linejoin:round"></path><path d="M393.32,92.68A11.33,11.33,0,0,0,387,83.85C381,81,377.71,80.15,376.89,88a68.62,68.62,0,0,0,.21,15s4.52-8,8-9,5.95,1.64,4.1,2.67-7.8,4.72-9.85,6.16-1.65,2.06-.21,4.72,4.31,9.45,4.31,9.45,2.67-11.7,3.9-13.76,5.55,0,4.11,3.49-5.34,12.73-5.34,12.73,5.34,5.75,8,7.4,4.72,7.59,4.72,7.59,1.85-1.84,6.78-3.69,11.91-4.93,11.5-7-2.26-4.52-6.16-9.65-9.86-10.07-7.39-10.27,15.6,6,16.83,8.83S420,121,420,121s3.9-5.34,3.9-8.22a9.68,9.68,0,0,0-1.64-5.13s-8.42-6.37-11.91-8.21-3.69-3.91-2.67-3.91,11.91,2.88,14,5.55a10.41,10.41,0,0,1,2.25,4.93c.21.61-2.46-14.38-6-17.46s-10.88-5.54-15.2-3.9-6.16,2.88-6.77,4.11A38.77,38.77,0,0,1,393.32,92.68Z" style="fill:#36864D;stroke:#263238;stroke-linecap:round;stroke-linejoin:round"></path><path d="M408.56,114.45s-4.15-5.22-5-3.48,5.49,9.91,6.16,9.24S410.43,117,408.56,114.45Z" style="fill:none;stroke:#263238;stroke-linecap:round;stroke-linejoin:round"></path><path d="M395.43,93.69s13.8-2.54,18.08-1.2" style="fill:none;stroke:#263238;stroke-linecap:round;stroke-linejoin:round"></path><path d="M395.84,97s11.25,2.82,15.67,6.3" style="fill:none;stroke:#263238;stroke-linecap:round;stroke-linejoin:round"></path><path d="M395.57,98.11s-6.3.81-9.38,3.22-3.35,3.21-3.35,3.21" style="fill:none;stroke:#263238;stroke-linecap:round;stroke-linejoin:round"></path><path d="M383.65,90.08A17.34,17.34,0,0,1,388.07,92a29.8,29.8,0,0,0,6,2.41s5,8,6,15.14.14,19.28,0,19.82" style="fill:none;stroke:#263238;stroke-linecap:round;stroke-linejoin:round"></path><path d="M398.51,104.41a76.69,76.69,0,0,0-4.95,9.91" style="fill:none;stroke:#263238;stroke-linecap:round;stroke-linejoin:round"></path><path d="M357.13,46.15a26.77,26.77,0,0,1-.94-5.89c0-2.55,2.68-6-1.74-7.64S341.59,27,340,24.86s-1.74-3.89-5.49-4.42-7-.41-11.79,2.54-6,6.43-6,6.43,1.88-1.34,12.59.67,16.34,8.57,13.53,8.84-17.95-6.56-21.7-7.37-5.89-1.2-8.17,1.21S310,40.53,310,40.53s6.29-4.29,13.66-3.62,18.88,6.56,17.27,7.23-11.38-3.88-18.34-2.81-11.25,1.74-11.79,4.42,1.88,4.42,1.88,4.42-1.48-2.55,3.88-5.36,14.06-2.14,14.06-1.47-4.95.13-8.44,1.87-8,4.29-6.56,5.23,4.82,3.08,5.49,5,.54,6,1.07,4.69,1.21-5.36,2.42-6.16,14.46-.27,14.46-.27,5.49-2.81,6.16-4.15.94-3.62,4-3,2.94,2,1.2,5-6.29,6.29-6.29,6.29,7.37-4,10.71-4.42,5.23-1.74,4.56-3.21-1.88-2.81.13-3.08,5-.27,5.22,1.34-2.41,3.35-2.41,3.35,10.85-3,13.4-5.09,4.68-3.62,3.88-4.69-5-.14-5-.14-3.88-3.21-8.43-1.33a18.29,18.29,0,0,0-7,5.08A3.32,3.32,0,0,1,357.13,46.15Z" style="fill:#36864D;stroke:#263238;stroke-linecap:round;stroke-linejoin:round"></path><path d="M338.25,28.47c.4-.13,5.89,5.49,8.7,10.05s10.18,7.63,10.18,7.63-10.18-.8-13.79-.67-12.86,2-16.21,4.42" style="fill:none;stroke:#263238;stroke-linecap:round;stroke-linejoin:round"></path><path d="M359.27,45.61s10.8-2.34,11.93-.7" style="fill:none;stroke:#263238;stroke-linecap:round;stroke-linejoin:round"></path><path d="M351.88,45.84a110.63,110.63,0,0,1-10.48-4.32c-3.29-1.75-13.88-7.09-22.1-7" style="fill:none;stroke:#263238;stroke-linecap:round;stroke-linejoin:round"></path><path d="M340.24,94.8s4.81-6.46,3.45-7.36S328.81,90,325.35,91.05s-9.77,1.2-16.83,2.4-8,3.31-9.93,3.46-3.3,0-4.51.6l-1.2.6a24.06,24.06,0,0,1,4.21,1.51c1.35.75,5.71.9,6.17,1.5s6.91,3.46,14.58,5.41,18.34-5.86,21.34-7.67,5.57-3.3,5.87-4.81S340.24,94.8,340.24,94.8Z" style="fill:#36864D;stroke:#263238;stroke-linecap:round;stroke-linejoin:round"></path><path d="M340.24,94.8s-3,3.16-4.51,3.46S325.05,101,318,101s-18.79-2-18.79-2" style="fill:none;stroke:#263238;stroke-linecap:round;stroke-linejoin:round"></path><path d="M332.87,91.8a22.39,22.39,0,0,0,3,4.36l1.2,1" style="fill:none;stroke:#263238;stroke-linecap:round;stroke-linejoin:round"></path><path d="M333,99s-6.16-3.6-9.32-4.36a25.93,25.93,0,0,0-5.41-.75" style="fill:none;stroke:#263238;stroke-linecap:round;stroke-linejoin:round"></path><path d="M323.7,101a34.3,34.3,0,0,0-9.32-3c-5.71-1-7.07-1.35-7.07-1.35" style="fill:none;stroke:#263238;stroke-linecap:round;stroke-linejoin:round"></path><path d="M331.82,99.31a18.87,18.87,0,0,1-7.22,4.36" style="fill:none;stroke:#263238;stroke-linecap:round;stroke-linejoin:round"></path><path d="M378.77,75.93s6.2-4.48,4-5.69-16.36,2.07-30.31,4.31-17.91,5.34-20.32,7.75a11,11,0,0,0-2.75,6s4.65.52,5.51,1,1.89-3.45,9.64-7.41,12.92-6.54,9.47-2.41-7.75,8.61-10.85,9.47l-3.1.86s8.1,2.93,9.82,2.07S362.58,76.44,364,76.61s1.55,1.21-.86,4.14a63.42,63.42,0,0,1-7.41,6.89s10.85.34,11.37-.52,7.06-11.88,7.58-9.64,0,2.92-1,4.3-3.27,4-3.27,4,20.15,3.1,20.49,1.21-1.2-5.86-4.82-7.58Z" style="fill:#36864D;stroke:#263238;stroke-linecap:round;stroke-linejoin:round"></path><path d="M378.77,75.93s-11.19-2.07-17.39-1.21" style="fill:none;stroke:#263238;stroke-linecap:round;stroke-linejoin:round"></path><path d="M349.2,172.5c0-.05-1.7-5.11-5-16.57a145.14,145.14,0,0,1-4.39-23.16l1.71-.16a143.74,143.74,0,0,0,4.33,22.84c3.27,11.42,4.94,16.46,4.95,16.51Z" style="fill:#263238"></path><path d="M357.07,129.14s-2.58-7.06-7.75-6.89-6.54,8.44-3.44,15.67,10.5,11.54,14.29,13.78,12.23,7.57,13.61,8.78,2.06-4.31,4-8.78,3.1-18.43-1-25.15-12.57-11.88-16-9.12S357.07,129.14,357.07,129.14Z" style="fill:#36864D;stroke:#263238;stroke-linecap:round;stroke-linejoin:round"></path><path d="M358.11,131.2s-.69,1.9,3.27,6.72,10.33,9.82,11,15.15" style="fill:none;stroke:#263238;stroke-linecap:round;stroke-linejoin:round"></path><path d="M359.65,130.69s12.4-1.9,15.85-.17" style="fill:none;stroke:#263238;stroke-linecap:round;stroke-linejoin:round"></path><path d="M357.76,133.27s-4.65,4.13-5.34,8.27" style="fill:none;stroke:#263238;stroke-linecap:round;stroke-linejoin:round"></path><path d="M362.41,139.64s-1.55,4.14-1.21,7.06" style="fill:none;stroke:#263238;stroke-linecap:round;stroke-linejoin:round"></path><path d="M366.72,143.09s6.54.51,7.74,3.44" style="fill:none;stroke:#263238;stroke-linecap:round;stroke-linejoin:round"></path><path d="M339.33,129.83s4.48-2.24,2.07-5.17-6.72-1.72-10.85-.34-3.79,2.75-15.15,2.92-15.33,2.24-15.33,2.24,5.86,0,9.47,2.76,22.22,5.85,26.87,6.54,11-1.89,11.71-5.68S339.33,129.83,339.33,129.83Z" style="fill:#36864D;stroke:#263238;stroke-linecap:round;stroke-linejoin:round"></path><path d="M308.16,129.65s1.55.69,11.2,1.55a73,73,0,0,0,17.91-.68,54.94,54.94,0,0,0-8.16-2.79" style="fill:none;stroke:#263238;stroke-linecap:round;stroke-linejoin:round"></path><path d="M321.9,129.23a46.8,46.8,0,0,1,7.81,2.41,24.4,24.4,0,0,1-9.47,1.35" style="fill:none;stroke:#263238;stroke-linecap:round;stroke-linejoin:round"></path><path d="M337.27,130.52s-2.14,4-4.1,4.72" style="fill:none;stroke:#263238;stroke-linecap:round;stroke-linejoin:round"></path><path d="M324.33,169.48h50.3s6.16,17.24,3.7,28.74-10.68,23.21-10.68,23.21H332.54s-11.91-12.94-12.12-27.52S324.33,169.48,324.33,169.48Z" style="fill:#263238;stroke:#263238;stroke-linecap:round;stroke-linejoin:round"></path></g></svg>
