<?xml version="1.0" standalone="no"?>
<svg viewBox="0 0 200 200" xmlns="http://www.w3.org/2000/svg">
  <path fill="#006B3C" d="M36.6,-47.6C51.8,-47.3,71.4,-44.4,82.4,-33.7C93.4,-23,95.9,-4.4,85.3,6.4C74.7,17.3,50.9,20.4,37.5,28.4C24.2,36.3,21.2,49.2,13.7,55.4C6.2,61.6,-5.9,61.3,-12.7,54.3C-19.6,47.3,-21.4,33.7,-23.9,24.3C-26.5,15,-29.9,9.9,-39.9,0.2C-49.9,-9.5,-66.6,-23.8,-69.6,-37.8C-72.5,-51.7,-61.7,-65.4,-47.8,-66.4C-33.9,-67.3,-16.9,-55.5,-3.1,-50.7C10.7,-45.8,21.5,-48,36.6,-47.6Z" transform="translate(100 100)" />
</svg>
